<?xml version="1.0" encoding="UTF-8" ?>
<!DOCTYPE svg PUBLIC "-//W3C//DTD SVG 1.1//EN" "http://www.w3.org/Graphics/SVG/1.1/DTD/svg11.dtd">
<svg width="127pt" height="39pt" viewBox="0 0 127 39" version="1.1" xmlns="http://www.w3.org/2000/svg">
<path fill="#ffffff" d=" M 0.00 0.00 L 127.00 0.00 L 127.00 39.00 L 0.00 39.00 L 0.00 0.00 Z" />
<path fill="#002460" d=" M 18.43 13.95 C 19.83 10.80 21.22 7.64 22.61 4.48 C 23.95 4.49 25.30 4.50 26.64 4.51 C 29.86 11.95 33.15 19.37 36.40 26.80 C 33.82 24.23 30.88 22.09 28.20 19.65 C 26.66 17.26 25.83 14.51 24.73 11.92 C 23.99 13.32 23.35 14.76 22.75 16.22 C 21.31 15.46 19.87 14.70 18.43 13.95 Z" />
<path fill="#698091" d=" M 56.00 4.50 C 61.42 4.50 66.83 4.49 72.25 4.51 C 72.25 6.00 72.25 7.50 72.25 9.00 C 68.50 9.00 64.75 9.00 61.00 9.00 C 61.00 10.92 61.00 12.84 61.01 14.75 C 64.17 14.75 67.33 14.75 70.50 14.75 C 70.50 16.25 70.49 17.75 70.49 19.25 C 67.33 19.25 64.17 19.25 61.01 19.25 C 61.00 22.58 61.00 25.92 60.99 29.25 C 59.33 29.25 57.67 29.25 56.01 29.25 C 56.00 21.00 56.00 12.75 56.00 4.50 Z" />
<path fill="#698091" d=" M 74.50 4.50 C 76.08 4.50 77.67 4.50 79.25 4.51 C 79.30 11.20 79.16 17.89 79.34 24.58 C 80.42 24.90 81.50 25.23 82.58 25.55 C 82.55 26.51 82.48 28.45 82.44 29.41 C 79.37 29.34 75.07 28.82 74.69 24.96 C 74.23 18.16 74.63 11.32 74.50 4.50 Z" />
<path fill="#008231" d=" M 4.43 10.73 C 5.68 9.75 7.00 8.81 8.54 8.36 L 9.06 8.70 C 10.65 9.82 11.13 13.11 13.62 11.36 L 12.61 10.39 C 12.50 9.81 12.28 8.63 12.17 8.04 C 13.68 9.06 15.26 10.27 15.32 12.33 L 16.14 11.27 C 16.00 11.88 15.70 13.08 15.56 13.69 C 24.07 16.77 31.63 22.37 37.54 29.19 C 35.63 29.23 33.72 29.25 31.80 29.27 C 28.60 25.64 25.27 22.05 21.37 19.15 C 20.06 18.20 18.73 17.29 17.36 16.45 C 16.77 16.11 15.59 15.44 15.00 15.10 C 13.25 16.47 11.12 16.94 8.95 17.10 L 9.81 15.99 C 8.67 15.14 7.32 14.66 5.95 14.34 C 7.18 13.88 8.41 13.43 9.64 12.98 C 9.03 12.49 8.41 12.01 7.80 11.53 C 6.79 13.78 4.56 12.95 3.04 11.93 C 3.52 11.08 3.98 10.23 4.44 9.37 L 4.43 10.73 Z" />
<path fill="#ffffff" d=" M 8.38 10.30 C 8.65 10.58 8.65 10.58 8.38 10.30 Z" />
<path fill="#dfefe5" d=" M 5.38 11.38 C 5.65 11.65 5.65 11.65 5.38 11.38 Z" />
<path fill="#002460" d=" M 37.52 15.42 C 37.89 12.05 41.78 10.15 44.83 11.13 C 47.29 12.01 49.75 10.84 52.25 10.88 C 52.24 16.60 52.28 22.33 52.26 28.05 C 52.56 31.70 49.73 35.16 46.17 35.79 C 43.09 36.47 39.90 35.50 37.40 33.66 C 38.36 32.60 39.34 31.55 40.33 30.52 C 42.20 31.70 44.96 32.54 46.74 30.72 C 47.04 29.85 47.65 28.11 47.95 27.24 C 44.97 28.50 40.97 29.12 38.61 26.33 C 36.57 23.14 37.15 19.00 37.52 15.42 Z" />
<path fill="#698091" d=" M 87.45 11.54 C 91.80 9.23 98.19 11.95 98.61 17.10 C 98.88 20.55 99.31 24.86 96.44 27.40 C 92.63 31.08 84.72 29.47 83.72 23.91 C 83.15 19.61 82.77 13.72 87.45 11.54 Z" />
<path fill="#698091" d=" M 98.96 11.02 C 100.66 11.01 102.35 11.00 104.05 10.99 C 104.84 14.50 105.63 18.01 106.43 21.52 C 107.54 18.08 108.57 14.61 109.49 11.11 C 110.69 11.05 111.89 11.00 113.09 10.95 C 114.13 14.44 115.15 17.94 116.29 21.41 C 117.14 17.92 117.89 14.40 118.77 10.92 C 120.41 10.96 122.06 11.00 123.70 11.03 C 122.09 16.66 120.59 22.31 118.91 27.91 C 118.71 30.03 116.03 28.96 114.69 29.38 C 113.59 25.70 112.48 22.03 111.35 18.36 C 110.28 22.00 109.20 25.64 108.07 29.26 C 106.77 29.25 105.48 29.24 104.19 29.22 C 102.48 23.14 100.74 17.07 98.96 11.02 Z" />
<path fill="#ffffff" d=" M 9.36 14.25 C 10.09 12.60 12.82 13.23 13.82 14.32 C 12.92 15.40 10.21 15.53 9.36 14.25 Z" />
<path fill="#ffffff" d=" M 43.43 15.38 C 47.43 14.00 48.14 19.18 47.29 21.93 C 47.07 24.75 42.51 24.69 42.14 21.98 C 41.98 19.81 41.40 16.88 43.43 15.38 Z" />
<path fill="#ffffff" d=" M 89.47 15.21 C 91.01 15.44 93.35 15.19 93.70 17.23 C 94.58 20.01 94.38 25.66 90.15 24.85 C 86.97 22.84 87.97 18.06 89.47 15.21 Z" />
<path fill="#002460" d=" M 17.36 16.45 C 18.73 17.29 20.06 18.20 21.37 19.15 C 20.05 22.57 18.58 25.93 17.06 29.26 C 15.31 29.25 13.56 29.25 11.81 29.23 C 13.59 24.94 15.53 20.72 17.36 16.45 Z" />
</svg>
